<?xml version="1.0" standalone="no"?>
<!DOCTYPE svg PUBLIC "-//W3C//DTD SVG 20010904//EN"
 "http://www.w3.org/TR/2001/REC-SVG-20010904/DTD/svg10.dtd">
<svg version="1.0" xmlns="http://www.w3.org/2000/svg"
 width="227.000000pt" height="227.000000pt" viewBox="0 0 227.000000 227.000000"
 preserveAspectRatio="xMidYMid meet">
<metadata>
Created by potrace 1.14, written by Peter Selinger 2001-2017
</metadata>
<g transform="translate(0.000000,227.000000) scale(0.100000,-0.100000)"
fill="#000000" stroke="none">
<path d="M1092 2124 c-84 -43 -82 -168 4 -209 50 -23 95 -13 133 31 44 49 43
101 -1 149 -40 43 -88 53 -136 29z"/>
<path d="M729 2045 c-25 -57 -21 -86 23 -164 35 -61 124 -154 142 -148 16 5
20 122 6 187 -23 103 -53 141 -128 164 -20 7 -25 2 -43 -39z"/>
<path d="M1485 2071 c-47 -21 -56 -32 -78 -88 -23 -60 -35 -149 -28 -213 l6
-55 63 59 c58 55 132 174 132 212 0 19 -38 104 -47 104 -4 0 -26 -9 -48 -19z"/>
<path d="M1307 1928 c-50 -70 -87 -166 -87 -228 0 -47 10 -49 80 -21 l45 19
-4 91 c-1 50 2 114 9 142 7 27 10 52 7 55 -3 3 -25 -23 -50 -58z"/>
<path d="M935 1960 c4 -14 9 -79 10 -145 l2 -120 44 -17 c78 -30 83 -27 75 45
-7 74 -59 188 -107 232 -32 30 -32 30 -24 5z"/>
<path d="M695 1838 c12 -94 49 -185 101 -247 31 -38 40 -33 74 40 24 50 24 51
5 62 -40 22 -123 109 -146 152 -13 25 -28 45 -32 45 -5 0 -6 -24 -2 -52z"/>
<path d="M1569 1859 c-13 -33 -121 -149 -153 -167 -19 -9 -19 -11 -3 -53 10
-24 25 -53 33 -64 15 -20 16 -19 46 15 46 54 87 149 96 224 9 74 1 93 -19 45z"/>
<path d="M462 1860 c-18 -11 -40 -36 -49 -55 -15 -32 -16 -40 -3 -77 19 -53
57 -81 110 -81 53 0 91 28 110 81 13 37 12 45 -3 77 -19 39 -69 75 -107 75
-14 0 -40 -9 -58 -20z"/>
<path d="M1725 1870 c-60 -24 -90 -103 -61 -158 57 -110 219 -73 218 49 -1 49
-16 75 -55 99 -34 21 -69 24 -102 10z"/>
<path d="M893 1592 c-38 -78 -39 -74 62 -123 l60 -29 22 47 c12 27 25 67 29
91 5 35 4 42 -10 42 -9 0 -42 9 -73 20 -32 11 -57 20 -58 19 0 0 -14 -30 -32
-67z"/>
<path d="M1288 1636 c-48 -15 -68 -26 -68 -37 0 -25 39 -147 49 -153 9 -6 112
43 144 68 18 14 17 16 -7 55 -14 22 -26 44 -26 49 0 4 -6 15 -12 23 -12 14
-20 14 -80 -5z"/>
<path d="M1101 1560 c-6 -28 -18 -67 -26 -87 -8 -20 -14 -38 -11 -40 5 -5 157
-6 162 0 2 2 -4 24 -15 48 -10 24 -22 63 -26 87 -6 40 -9 42 -40 42 -32 0 -34
-2 -44 -50z"/>
<path d="M395 1583 c6 -5 36 -26 67 -47 31 -21 76 -62 98 -92 l42 -53 36 15
c45 19 82 42 82 52 -1 15 -92 75 -147 97 -59 24 -197 46 -178 28z"/>
<path d="M1790 1579 c-55 -11 -154 -58 -199 -96 l-34 -29 63 -33 c34 -18 65
-29 69 -25 4 5 23 30 43 55 20 25 63 63 95 84 32 22 62 43 68 47 12 10 -47 8
-105 -3z"/>
<path d="M230 1553 c-19 -8 -37 -16 -39 -18 -1 -2 8 -28 22 -58 23 -51 29 -56
83 -77 67 -25 220 -39 249 -22 17 9 13 16 -41 70 -65 64 -166 123 -211 121
-15 0 -44 -7 -63 -16z"/>
<path d="M1897 1533 c-41 -22 -88 -58 -118 -91 -44 -49 -48 -56 -33 -65 9 -5
56 -7 104 -5 65 4 101 12 147 33 54 24 64 33 82 73 22 53 18 62 -38 81 -52 17
-70 14 -144 -26z"/>
<path d="M805 1470 c-17 -19 -16 -21 12 -67 17 -26 36 -63 43 -80 7 -18 15
-33 19 -33 4 0 31 24 60 54 49 50 59 76 27 76 -7 0 -38 16 -70 35 -32 19 -62
35 -66 35 -4 0 -15 -9 -25 -20z"/>
<path d="M1415 1468 c-16 -11 -49 -28 -72 -39 -24 -11 -43 -25 -43 -30 0 -12
98 -109 110 -109 5 0 13 15 19 33 7 19 25 55 42 82 28 45 29 48 13 66 -21 23
-31 23 -69 -3z"/>
<path d="M694 1390 c-28 -15 -57 -29 -63 -31 -7 -3 -5 -21 9 -57 11 -29 20
-61 20 -72 0 -25 12 -25 91 0 92 29 92 29 74 74 -21 49 -63 116 -73 115 -4 0
-30 -13 -58 -29z"/>
<path d="M1518 1403 c-17 -20 -52 -86 -62 -119 -5 -17 0 -24 31 -37 53 -23
122 -39 133 -32 6 3 10 16 11 28 0 12 8 42 18 66 l18 45 -61 30 c-34 17 -64
32 -67 33 -3 2 -12 -4 -21 -14z"/>
<path d="M970 1320 l-74 -75 -2 -110 -1 -110 42 -32 c24 -18 55 -49 70 -70
l28 -38 113 0 c112 0 113 0 129 27 9 15 39 48 68 73 l52 45 -1 107 -1 108 -73
73 -73 73 -101 2 -102 2 -74 -75z"/>
<path d="M300 1349 c0 -9 61 -57 111 -87 39 -24 138 -52 181 -52 33 0 35 14
11 82 l-17 47 -90 -5 c-63 -4 -107 -1 -143 9 -29 8 -53 11 -53 6z"/>
<path d="M1935 1342 c-34 -9 -80 -11 -141 -8 l-92 5 -10 -27 c-6 -15 -15 -44
-21 -64 l-9 -38 31 0 c46 0 124 23 182 53 52 27 124 82 115 89 -3 2 -27 -2
-55 -10z"/>
<path d="M233 1253 c-32 -6 -79 -56 -87 -93 -8 -43 16 -95 56 -120 94 -59 213
45 165 146 -24 50 -78 77 -134 67z"/>
<path d="M1993 1248 c-81 -21 -109 -118 -53 -182 36 -40 76 -52 125 -36 63 21
94 98 64 163 -20 43 -83 69 -136 55z"/>
<path d="M780 1199 c-30 -10 -67 -21 -82 -24 -24 -5 -28 -10 -28 -40 0 -30 3
-35 23 -35 13 0 50 -9 83 -20 32 -11 62 -20 66 -20 12 0 20 69 14 115 -4 25
-10 45 -14 44 -4 0 -32 -9 -62 -20z"/>
<path d="M1436 1204 c-8 -20 -8 -102 0 -131 6 -21 8 -22 35 -7 16 8 55 20 86
27 54 13 58 16 61 44 3 30 1 32 -48 42 -27 6 -67 18 -86 26 -44 18 -41 18 -48
-1z"/>
<path d="M524 1055 c-72 -16 -111 -34 -176 -83 -47 -35 -63 -60 -32 -48 42 16
147 25 204 18 l62 -9 15 35 c8 20 17 51 20 69 6 38 3 39 -93 18z"/>
<path d="M1668 1065 c-7 -8 9 -70 28 -106 13 -25 15 -26 71 -17 53 8 161 -1
210 -18 29 -11 -35 53 -82 80 -67 39 -210 78 -227 61z"/>
<path d="M660 1045 c0 -9 -8 -40 -19 -69 l-19 -54 68 -34 67 -35 21 31 c28 41
62 118 56 127 -2 4 -29 17 -60 28 -66 25 -114 28 -114 6z"/>
<path d="M1516 1040 c-27 -11 -53 -23 -58 -28 -10 -10 13 -69 48 -122 l25 -37
68 35 68 36 -19 48 c-10 27 -18 57 -18 68 0 26 -47 26 -114 0z"/>
<path d="M861 957 c-7 -19 -25 -55 -42 -82 l-30 -47 21 -23 21 -23 57 35 c31
18 67 36 80 39 12 4 22 10 22 15 0 12 -58 76 -90 99 l-28 20 -11 -33z"/>
<path d="M1347 932 c-47 -48 -58 -72 -34 -72 7 0 42 -18 78 -39 l64 -39 23 22
23 22 -35 59 c-20 32 -38 67 -42 77 -9 28 -26 22 -77 -30z"/>
<path d="M362 895 c-98 -23 -128 -43 -151 -96 -12 -26 -21 -50 -21 -52 0 -3
22 -14 49 -26 46 -19 52 -20 92 -6 71 25 123 61 179 122 l53 58 -29 6 c-47 11
-115 8 -172 -6z"/>
<path d="M1758 903 c-16 -2 -28 -8 -28 -12 0 -13 106 -113 146 -138 22 -12 58
-30 80 -39 39 -15 44 -15 92 6 l50 22 -14 43 c-9 24 -23 50 -33 59 -44 40
-211 74 -293 59z"/>
<path d="M590 873 c0 -20 -82 -103 -141 -142 l-61 -41 48 0 c65 0 171 39 234
85 27 20 50 40 50 45 0 12 -68 50 -102 57 -15 3 -28 1 -28 -4z"/>
<path d="M1620 856 c-25 -12 -45 -29 -45 -36 0 -23 104 -89 173 -110 35 -11
85 -20 111 -20 l46 1 -40 21 c-22 11 -72 54 -112 94 -39 41 -75 74 -80 74 -4
0 -28 -11 -53 -24z"/>
<path d="M1068 844 c-4 -3 1 -27 11 -53 10 -25 22 -65 26 -89 7 -41 9 -43 37
-40 28 3 32 8 53 78 12 41 24 82 26 90 3 12 -10 16 -71 18 -42 1 -79 0 -82 -4z"/>
<path d="M945 804 c-87 -45 -89 -48 -55 -110 15 -29 30 -58 32 -65 6 -18 148
29 148 49 -1 36 -46 147 -60 149 -8 2 -37 -9 -65 -23z"/>
<path d="M1250 788 c-10 -24 -22 -62 -26 -85 l-6 -40 72 -22 c40 -12 73 -21
74 -19 0 2 15 31 32 66 l32 62 -27 19 c-32 22 -78 46 -109 55 -19 7 -25 2 -42
-36z"/>
<path d="M786 671 c-20 -27 -45 -69 -55 -93 -23 -50 -47 -176 -36 -186 4 -4
10 -1 12 6 12 33 96 133 137 162 37 27 45 38 40 54 -7 23 -53 106 -59 106 -2
0 -19 -22 -39 -49z"/>
<path d="M1447 699 c-9 -13 -23 -41 -33 -62 l-18 -38 34 -27 c50 -38 108 -101
133 -144 27 -49 36 -48 30 5 -12 101 -47 189 -107 261 l-24 29 -15 -24z"/>
<path d="M446 599 c-44 -38 -54 -83 -32 -131 43 -89 169 -91 211 -2 23 50 13
95 -31 133 -48 43 -100 43 -148 0z"/>
<path d="M1704 611 c-30 -18 -54 -64 -54 -103 0 -32 29 -77 60 -93 90 -47 191
27 169 124 -18 79 -105 115 -175 72z"/>
<path d="M1040 614 c-8 -3 -33 -12 -56 -20 l-41 -14 4 -98 c3 -68 0 -111 -10
-144 -8 -27 -12 -48 -8 -48 8 0 56 59 83 101 27 42 58 144 58 189 0 40 -2 43
-30 34z"/>
<path d="M1222 558 c6 -77 49 -174 103 -233 l36 -40 -8 35 c-4 19 -8 86 -8
148 l0 112 -40 15 c-94 33 -89 36 -83 -37z"/>
<path d="M836 500 c-55 -52 -126 -171 -126 -211 0 -35 32 -99 49 -99 44 2 86
36 116 94 25 50 30 74 33 154 3 57 0 98 -6 104 -7 7 -27 -5 -66 -42z"/>
<path d="M1378 503 c-6 -74 8 -164 35 -225 22 -49 30 -58 72 -74 46 -17 48
-17 62 1 7 11 19 36 25 57 10 34 8 44 -22 105 -32 64 -135 183 -158 183 -6 0
-12 -21 -14 -47z"/>
<path d="M1064 336 c-28 -28 -34 -41 -34 -78 0 -50 18 -82 60 -103 82 -42 170
15 170 111 0 28 -8 44 -34 70 -29 29 -41 34 -81 34 -40 0 -52 -5 -81 -34z"/>
</g>
</svg>
